<svg preserveAspectRatio="none" width="24" height="24" viewBox="0 0 24 24" fill="none" xmlns="http://www.w3.org/2000/svg">
<path d="M11.9048 14.625C12.601 14.625 13.2686 14.3485 13.7609 13.8562C14.2532 13.3639 14.5298 12.6962 14.5298 12C14.5298 11.9231 14.5262 11.847 14.5197 11.7717L11.6765 14.6149C11.7517 14.6215 11.8277 14.625 11.9048 14.625ZM20.5935 3.88034L19.5923 2.88002C19.5571 2.84489 19.5094 2.82515 19.4597 2.82515C19.41 2.82515 19.3623 2.84489 19.3272 2.88002L16.765 5.44291C15.3516 4.72057 13.7627 4.3594 11.9985 4.3594C7.49383 4.3594 4.13289 6.70549 1.91571 11.3977C1.82659 11.5864 1.78036 11.7925 1.78036 12.0012C1.78036 12.2099 1.82659 12.416 1.91571 12.6047C2.80164 14.4708 3.86844 15.9665 5.11609 17.0918L2.63664 19.5703C2.60151 19.6055 2.58177 19.6532 2.58177 19.7029C2.58177 19.7526 2.60151 19.8002 2.63664 19.8354L3.63719 20.836C3.67235 20.8711 3.72002 20.8908 3.76973 20.8908C3.81943 20.8908 3.86711 20.8711 3.90227 20.836L20.5935 4.14565C20.6109 4.12823 20.6248 4.10756 20.6342 4.08479C20.6436 4.06203 20.6485 4.03763 20.6485 4.01299C20.6485 3.98835 20.6436 3.96395 20.6342 3.94119C20.6248 3.91843 20.6109 3.89775 20.5935 3.88034ZM7.77977 12C7.7797 11.2875 7.96418 10.5872 8.31524 9.96718C8.66629 9.34718 9.17195 8.82869 9.78295 8.4622C10.394 8.09571 11.0895 7.89373 11.8017 7.87593C12.514 7.85814 13.2187 8.02513 13.8473 8.36065L12.7077 9.50018C12.2482 9.35303 11.757 9.3353 11.288 9.44896C10.819 9.56261 10.3904 9.80324 10.0492 10.1445C9.70798 10.4857 9.46735 10.9143 9.3537 11.3832C9.24005 11.8522 9.25777 12.3434 9.40492 12.803L8.26539 13.9425C7.94561 13.345 7.77877 12.6777 7.77977 12V12Z" fill="#0B4654" fill-opacity="0.24"/>
<path d="M22.0819 11.3954C21.2569 9.65786 20.2749 8.24107 19.136 7.14497L15.7577 10.5235C16.0425 11.2679 16.1056 12.0788 15.9395 12.8583C15.7733 13.6379 15.385 14.3526 14.8214 14.9162C14.2578 15.4797 13.5431 15.8681 12.7636 16.0342C11.9841 16.2004 11.1731 16.1372 10.4287 15.8525L7.56326 18.7179C8.89264 19.3331 10.3712 19.6407 11.999 19.6407C16.5037 19.6407 19.8647 17.2946 22.0819 12.6024C22.171 12.4137 22.2172 12.2076 22.2172 11.9989C22.2172 11.7902 22.171 11.5841 22.0819 11.3954V11.3954Z" fill="#0B4654" fill-opacity="0.24"/>
</svg>
