<svg preserveAspectRatio="none" width="24" height="24" viewBox="0 0 24 24" fill="none" xmlns="http://www.w3.org/2000/svg">
<path d="M20.0623 18.6975C21.1394 17.4015 21.8886 15.8653 22.2463 14.2186C22.6041 12.5719 22.5601 10.8633 22.1178 9.23728C21.6756 7.61125 20.8483 6.11564 19.7058 4.87697C18.5634 3.63831 17.1394 2.69303 15.5543 2.12111C13.9692 1.54918 12.2697 1.36743 10.5996 1.59123C8.9294 1.81503 7.3377 2.43779 5.95913 3.40685C4.58055 4.3759 3.45565 5.66273 2.67958 7.15847C1.90352 8.65422 1.49912 10.3149 1.50059 12C1.50116 14.4496 2.3644 16.8208 3.93884 18.6975L3.92384 18.7102C3.97634 18.7732 4.03634 18.8272 4.09034 18.8895C4.15784 18.9667 4.23059 19.0395 4.30034 19.1145C4.51034 19.3425 4.72634 19.5615 4.95284 19.767C5.02184 19.83 5.09309 19.8885 5.16284 19.9485C5.40284 20.1555 5.64959 20.352 5.90534 20.535C5.93834 20.5575 5.96834 20.5867 6.00134 20.61V20.601C7.75792 21.8371 9.85342 22.5005 12.0013 22.5005C14.1493 22.5005 16.2448 21.8371 18.0013 20.601V20.61C18.0343 20.5867 18.0636 20.5575 18.0973 20.535C18.3523 20.3512 18.5998 20.1555 18.8398 19.9485C18.9096 19.8885 18.9808 19.8292 19.0498 19.767C19.2763 19.5607 19.4923 19.3425 19.7023 19.1145C19.7721 19.0395 19.8441 18.9667 19.9123 18.8895C19.9656 18.8272 20.0263 18.7732 20.0788 18.7095L20.0623 18.6975ZM12.0006 5.99997C12.6681 5.99997 13.3206 6.19791 13.8756 6.56876C14.4307 6.93961 14.8632 7.46671 15.1187 8.08341C15.3741 8.70011 15.441 9.37871 15.3107 10.0334C15.1805 10.6881 14.8591 11.2894 14.3871 11.7615C13.9151 12.2335 13.3137 12.5549 12.659 12.6851C12.0043 12.8153 11.3257 12.7485 10.709 12.4931C10.0923 12.2376 9.56523 11.805 9.19438 11.25C8.82353 10.695 8.62559 10.0425 8.62559 9.37497C8.62559 8.47986 8.98117 7.62142 9.61411 6.98848C10.247 6.35555 11.1055 5.99997 12.0006 5.99997V5.99997ZM6.00584 18.6975C6.01885 17.7127 6.41905 16.7726 7.11986 16.0807C7.82067 15.3887 8.76573 15.0005 9.75059 15H14.2506C15.2355 15.0005 16.1805 15.3887 16.8813 16.0807C17.5821 16.7726 17.9823 17.7127 17.9953 18.6975C16.3505 20.1797 14.2148 21 12.0006 21C9.7864 21 7.65071 20.1797 6.00584 18.6975V18.6975Z" fill="#0B4654" fill-opacity="0.5"/>
</svg>
