<svg preserveAspectRatio="none" width="24" height="24" viewBox="0 0 24 24" fill="none" xmlns="http://www.w3.org/2000/svg">
<path d="M17.9999 8.00004H19.9999C20.2651 8.00004 20.5194 8.1054 20.707 8.29294C20.8945 8.48047 20.9999 8.73483 20.9999 9.00004V21C20.9999 21.2653 20.8945 21.5196 20.707 21.7071C20.5194 21.8947 20.2651 22 19.9999 22H3.99985C3.73464 22 3.48028 21.8947 3.29275 21.7071C3.10521 21.5196 2.99985 21.2653 2.99985 21V9.00004C2.99985 8.73483 3.10521 8.48047 3.29275 8.29294C3.48028 8.1054 3.73464 8.00004 3.99985 8.00004H5.99985V7.00004C5.99985 5.40874 6.63199 3.88262 7.75721 2.7574C8.88243 1.63218 10.4086 1.00004 11.9999 1.00004C13.5912 1.00004 15.1173 1.63218 16.2425 2.7574C17.3677 3.88262 17.9999 5.40874 17.9999 7.00004V8.00004ZM15.9999 8.00004V7.00004C15.9999 5.93918 15.5784 4.92176 14.8283 4.17161C14.0781 3.42147 13.0607 3.00004 11.9999 3.00004C10.939 3.00004 9.92157 3.42147 9.17143 4.17161C8.42128 4.92176 7.99985 5.93918 7.99985 7.00004V8.00004H15.9999ZM10.9999 14V16H12.9999V14H10.9999ZM6.99985 14V16H8.99985V14H6.99985ZM14.9999 14V16H16.9999V14H14.9999Z" fill="#0B4654" fill-opacity="0.5"/>
</svg>
